<mxfile host="app.diagrams.net" modified="2022-04-08T03:31:29.501Z" agent="5.0 (Macintosh; Intel Mac OS X 10_15_7) AppleWebKit/537.36 (KHTML, like Gecko) Chrome/90.0.4430.212 Safari/537.36 Edg/90.0.818.66" etag="4nh_-MzXPVEV_4b_znQj" version="17.4.1" type="github">
  <diagram id="crwJ5-xc4LsRYs2KmRbJ" name="Page-1">
    <mxGraphModel dx="1723" dy="961" grid="1" gridSize="10" guides="1" tooltips="1" connect="1" arrows="1" fold="1" page="1" pageScale="1" pageWidth="827" pageHeight="1169" math="0" shadow="0">
      <root>
        <mxCell id="0" />
        <mxCell id="1" parent="0" />
        <mxCell id="MHYec7RZWUzzXKcGL2oj-2" value="Thread 1" style="text;html=1;align=center;verticalAlign=middle;resizable=0;points=[];autosize=1;strokeColor=none;fillColor=none;" vertex="1" parent="1">
          <mxGeometry x="240" y="130" width="60" height="20" as="geometry" />
        </mxCell>
        <mxCell id="MHYec7RZWUzzXKcGL2oj-4" value="Thread 1" style="text;html=1;align=center;verticalAlign=middle;resizable=0;points=[];autosize=1;strokeColor=none;fillColor=none;" vertex="1" parent="1">
          <mxGeometry x="580" y="130" width="60" height="20" as="geometry" />
        </mxCell>
        <mxCell id="MHYec7RZWUzzXKcGL2oj-17" value="" style="swimlane;startSize=0;" vertex="1" parent="1">
          <mxGeometry x="510" y="670" width="200" height="370" as="geometry" />
        </mxCell>
        <mxCell id="MHYec7RZWUzzXKcGL2oj-18" value="update where id in (1,2)" style="text;html=1;align=center;verticalAlign=middle;resizable=0;points=[];autosize=1;strokeColor=none;fillColor=none;" vertex="1" parent="MHYec7RZWUzzXKcGL2oj-17">
          <mxGeometry x="30" y="70" width="140" height="20" as="geometry" />
        </mxCell>
        <mxCell id="MHYec7RZWUzzXKcGL2oj-20" value="Thread 1" style="text;html=1;align=center;verticalAlign=middle;resizable=0;points=[];autosize=1;strokeColor=none;fillColor=none;" vertex="1" parent="1">
          <mxGeometry x="240" y="630" width="60" height="20" as="geometry" />
        </mxCell>
        <mxCell id="MHYec7RZWUzzXKcGL2oj-21" value="" style="swimlane;startSize=0;" vertex="1" parent="1">
          <mxGeometry x="190" y="670" width="200" height="370" as="geometry" />
        </mxCell>
        <mxCell id="MHYec7RZWUzzXKcGL2oj-22" value="update where id in (1,2)" style="text;html=1;align=center;verticalAlign=middle;resizable=0;points=[];autosize=1;strokeColor=none;fillColor=none;" vertex="1" parent="MHYec7RZWUzzXKcGL2oj-21">
          <mxGeometry x="30" y="70" width="140" height="20" as="geometry" />
        </mxCell>
        <mxCell id="MHYec7RZWUzzXKcGL2oj-24" value="Thread 1" style="text;html=1;align=center;verticalAlign=middle;resizable=0;points=[];autosize=1;strokeColor=none;fillColor=none;" vertex="1" parent="1">
          <mxGeometry x="580" y="630" width="60" height="20" as="geometry" />
        </mxCell>
        <mxCell id="MHYec7RZWUzzXKcGL2oj-26" value="" style="swimlane;startSize=0;" vertex="1" parent="1">
          <mxGeometry x="200" y="180" width="200" height="240" as="geometry" />
        </mxCell>
        <mxCell id="MHYec7RZWUzzXKcGL2oj-27" value="update where id = 1" style="text;html=1;align=center;verticalAlign=middle;resizable=0;points=[];autosize=1;strokeColor=none;fillColor=none;" vertex="1" parent="MHYec7RZWUzzXKcGL2oj-26">
          <mxGeometry x="40" y="50" width="120" height="20" as="geometry" />
        </mxCell>
        <mxCell id="MHYec7RZWUzzXKcGL2oj-3" value="" style="swimlane;startSize=0;" vertex="1" parent="MHYec7RZWUzzXKcGL2oj-26">
          <mxGeometry y="120" width="200" height="120" as="geometry" />
        </mxCell>
        <mxCell id="MHYec7RZWUzzXKcGL2oj-28" value="update where id = 2" style="text;html=1;align=center;verticalAlign=middle;resizable=0;points=[];autosize=1;strokeColor=none;fillColor=none;" vertex="1" parent="MHYec7RZWUzzXKcGL2oj-3">
          <mxGeometry x="40" y="45" width="120" height="20" as="geometry" />
        </mxCell>
        <mxCell id="MHYec7RZWUzzXKcGL2oj-29" value="" style="swimlane;startSize=0;" vertex="1" parent="1">
          <mxGeometry x="510" y="180" width="200" height="240" as="geometry" />
        </mxCell>
        <mxCell id="MHYec7RZWUzzXKcGL2oj-31" value="" style="swimlane;startSize=0;" vertex="1" parent="MHYec7RZWUzzXKcGL2oj-29">
          <mxGeometry y="120" width="200" height="120" as="geometry" />
        </mxCell>
        <mxCell id="MHYec7RZWUzzXKcGL2oj-30" value="update where id = 1" style="text;html=1;align=center;verticalAlign=middle;resizable=0;points=[];autosize=1;strokeColor=none;fillColor=none;" vertex="1" parent="MHYec7RZWUzzXKcGL2oj-31">
          <mxGeometry x="50" y="45" width="120" height="20" as="geometry" />
        </mxCell>
        <mxCell id="MHYec7RZWUzzXKcGL2oj-32" value="update where id = 2" style="text;html=1;align=center;verticalAlign=middle;resizable=0;points=[];autosize=1;strokeColor=none;fillColor=none;" vertex="1" parent="MHYec7RZWUzzXKcGL2oj-29">
          <mxGeometry x="40" y="50" width="120" height="20" as="geometry" />
        </mxCell>
        <mxCell id="MHYec7RZWUzzXKcGL2oj-33" value="time1" style="text;html=1;align=center;verticalAlign=middle;resizable=0;points=[];autosize=1;strokeColor=none;fillColor=none;" vertex="1" parent="1">
          <mxGeometry x="120" y="240" width="40" height="20" as="geometry" />
        </mxCell>
        <mxCell id="MHYec7RZWUzzXKcGL2oj-34" value="time2" style="text;html=1;align=center;verticalAlign=middle;resizable=0;points=[];autosize=1;strokeColor=none;fillColor=none;" vertex="1" parent="1">
          <mxGeometry x="120" y="340" width="40" height="20" as="geometry" />
        </mxCell>
        <mxCell id="MHYec7RZWUzzXKcGL2oj-35" value="time1" style="text;html=1;align=center;verticalAlign=middle;resizable=0;points=[];autosize=1;strokeColor=none;fillColor=none;" vertex="1" parent="1">
          <mxGeometry x="440" y="240" width="40" height="20" as="geometry" />
        </mxCell>
        <mxCell id="MHYec7RZWUzzXKcGL2oj-36" value="time2" style="text;html=1;align=center;verticalAlign=middle;resizable=0;points=[];autosize=1;strokeColor=none;fillColor=none;" vertex="1" parent="1">
          <mxGeometry x="440" y="340" width="40" height="20" as="geometry" />
        </mxCell>
      </root>
    </mxGraphModel>
  </diagram>
</mxfile>
